<svg xmlns="http://www.w3.org/2000/svg" viewBox="0 0 272.27 229.35"><defs><style>.cls-1{fill:#fff;}</style></defs><g id="Capa_2" data-name="Capa 2"><g id="Capa_1-2" data-name="Capa 1"><path class="cls-1" d="M122.22,49.85l24.05,41.67c2.71-.06,5.44-.08,8.19-.08q10.56,0,20.82.47L122.22,0,63.91,101C74,98.68,84.78,96.75,96,95.24ZM79,90.12l43.18-74.78,39.54,68.49c-2.44,0-4.87,0-7.3,0h-3.8L128.86,46l-6.64-11.5L115.57,46,91.24,88.16Q85.06,89.06,79,90.12Z"/><path class="cls-1" d="M86.46,229.35C56.38,216.14,38,198.45,38,179a34.51,34.51,0,0,1,5.86-18.72h170.9l-31.13-53.93c11.84-1,24.11-1.5,36.67-1.5a437.78,437.78,0,0,1,48.85,2.69c-.9-.29-1.82-.56-2.73-.84.91.28,1.84.55,2.73.84l3.12.37q-4.11-1.05-8.37-2h0c-25.39-5.66-54.6-8.9-85.68-8.93h-.56q-10.6,0-20.91.49c-2.29.1-4.56.23-6.82.37h0a377.74,377.74,0,0,0-60.34,8.49c-1.58.36-3.15.73-4.7,1.12a251.16,251.16,0,0,0-30.1,9.31C21,129.74,0,148,0,168.22,0,194.19,34.66,216.91,86.46,229.35Zm70.2-119.84,14.93,25.86H72.92C93.82,123.72,122.87,114.63,156.66,109.51Z"/></g></g></svg>