<svg xmlns="http://www.w3.org/2000/svg" viewBox="0 0 272.27 222.33"><defs><style>.cls-1{fill:none;}.cls-2{fill:#fff;}</style></defs><g id="Capa_2" data-name="Capa 2"><g id="Capa_1-2" data-name="Capa 1"><path class="cls-1" d="M190.87,73.27a24.56,24.56,0,0,1-.68,4c5.52,3.25,13.6,3,18.71-.77,7-5.11,18.11-5.11,25.17,0a.41.41,0,0,0,.13.2,1.72,1.72,0,0,1,.3.34,2.82,2.82,0,0,1,.23.41c0,.06.1.06.1.13,1.54,4.31,2.44,6.93,3,8.61a7.4,7.4,0,0,1,3.58.07c.24.07.44.2.64.27a32.89,32.89,0,0,0,.36-4.84C242.38,64,230.09,53,210.3,53c-10.86,0-17.25,2.39-20.81,7.46-.11.59-.23,1.19-.36,1.78A20.81,20.81,0,0,1,190.87,73.27Z"/><path class="cls-1" d="M240.21,90.67a3.29,3.29,0,0,0-2.47.4,3.54,3.54,0,0,1-.74.34,2.24,2.24,0,0,1-2-.34,2.33,2.33,0,0,1-.9-1.54c-.2-.88-1.74-5.39-3.24-9.63-5.52-3.64-14-3.51-19.35.33a21.64,21.64,0,0,1-12.6,3.84,23,23,0,0,1-10-2.29c-1.27,3.57-2.44,7-2.61,7.75a2.46,2.46,0,0,1-.9,1.54,2.32,2.32,0,0,1-2,.34,4.08,4.08,0,0,1-.7-.34,3.37,3.37,0,0,0-2.47-.4,2,2,0,0,0-.85.52c-.49,1.44-1,2.85-1.6,4.23a11.93,11.93,0,0,0,0,2,9,9,0,0,0,2.34,5.79c.17.14.47.41.8.34a2.67,2.67,0,0,1,2-.07,2.37,2.37,0,0,1,1.34,1.48c2.17,8.69,6.71,15.89,12.8,20.33a21.77,21.77,0,0,0,26.23,0c6-4.44,10.6-11.64,12.8-20.33a2.11,2.11,0,0,1,1.21-1.48,2.42,2.42,0,0,1,1.94,0,1.16,1.16,0,0,0,1-.27,9.11,9.11,0,0,0,2.3-5.79C243,93.77,241.62,91.07,240.21,90.67Z"/><path class="cls-1" d="M89.78,56.18a9.53,9.53,0,0,1,5.31-.1c.79-2.5,2.13-6.4,4.42-12.8,0-.09.14-.19.24-.4s.11-.3.21-.4a.16.16,0,0,1,.14-.1,1.46,1.46,0,0,1,.5-.49,1.15,1.15,0,0,1,.5-.41c.19-.09.39-.09.64-.2s.35-.1.54-.2a1.37,1.37,0,0,1,.65.1,1.5,1.5,0,0,1,.65.1h.2c.14.11.24.2.39.3a.74.74,0,0,1,.45.1c8.13,6,21.39,6,29.53,0,10.47-7.59,26.89-7.59,37.37,0a.7.7,0,0,0,.19.3,2.5,2.5,0,0,1,.45.5,3.73,3.73,0,0,1,.34.61c.06.1.16.1.16.19,2.27,6.4,3.62,10.3,4.41,12.8a10.67,10.67,0,0,1,5.31.1c.35.1.64.3,1,.4a49.24,49.24,0,0,0,.54-7.2c0-26.29-18.26-42.58-47.64-42.58s-47.7,16.29-47.7,42.58a47.74,47.74,0,0,0,.55,7.1C89.34,56.38,89.53,56.28,89.78,56.18Z"/><path class="cls-1" d="M160.85,118.46a27.44,27.44,0,0,0,6.75,13.09,96.77,96.77,0,0,1,11.56,2.81c2.83.69,5.86,1.59,9.42,2.79l.29.1a18.74,18.74,0,0,0,4.69-9A39.88,39.88,0,0,1,180.48,108a5.64,5.64,0,0,1-3.23-1.35,10.52,10.52,0,0,1-2.89-4.28A54.6,54.6,0,0,1,160.85,118.46Z"/><path class="cls-1" d="M210.2,134.3a25.64,25.64,0,0,1-12.63-3.37,22.76,22.76,0,0,1-4.07,7.9,131.79,131.79,0,0,1,16.27,7,34.85,34.85,0,0,1,7.45,5.2c5.45-4.11,9.93-8.4,10.76-11a22.6,22.6,0,0,1-5.11-9.09A25.9,25.9,0,0,1,210.2,134.3Z"/><path class="cls-1" d="M91.42,81.27a1.54,1.54,0,0,0,1.19.5,4,4,0,0,1,3-.1,3.47,3.47,0,0,1,2,2.2c3.22,12.9,10,23.59,19,30.19a32.33,32.33,0,0,0,39,0c9-6.6,15.74-17.29,19-30.19a3.08,3.08,0,0,1,1.79-2.2,3.58,3.58,0,0,1,2.87,0,1.77,1.77,0,0,0,1.55-.4c1.33-1.2,3-4.1,3.42-8.6.49-5.39-1.49-9.4-3.57-10a4.9,4.9,0,0,0-3.67.59,5.35,5.35,0,0,1-1.1.5,3.34,3.34,0,0,1-2.93-.5A3.44,3.44,0,0,1,171.61,61c-.29-1.3-2.58-8-4.81-14.3-8.19-5.4-20.84-5.2-28.73.5a32.1,32.1,0,0,1-18.71,5.7,34.23,34.23,0,0,1-14.89-3.4c-1.89,5.3-3.63,10.39-3.87,11.5a3.69,3.69,0,0,1-1.34,2.29,3.45,3.45,0,0,1-3,.5,5.27,5.27,0,0,1-1-.5,5,5,0,0,0-3.68-.59c-2.13.59-4.06,4.6-3.62,10C88.34,77.17,90.08,80.07,91.42,81.27Z"/><path class="cls-1" d="M56.29,149.94a34.53,34.53,0,0,1,6.14-4.09,139.74,139.74,0,0,1,17.14-7.33c.08-.18.15-.36.21-.53a22.54,22.54,0,0,1-5.11-9.09A25.89,25.89,0,0,1,62,132.26a25.63,25.63,0,0,1-12.63-3.36A22.74,22.74,0,0,1,44.28,138C45.15,140.81,50.27,145.57,56.29,149.94Z"/><path class="cls-1" d="M162.48,136a33.71,33.71,0,0,1-7.59-13.49,37.77,37.77,0,0,1-37.56,0A33.65,33.65,0,0,1,109.77,136c1.69,5.5,14.2,15.9,26.36,23.5C148.28,151.85,160.75,141.45,162.48,136Z"/><path class="cls-1" d="M97.33,101.52A9.87,9.87,0,0,1,95,104.66,5.46,5.46,0,0,1,91.74,106c-2.5,8.42-7.08,15.49-13.06,20.2A18.49,18.49,0,0,0,83.22,135c1.41.26,2.82.56,4.22.9,2-.61,3.89-1.13,5.72-1.56a112.13,112.13,0,0,1,11.06-2.31,27.81,27.81,0,0,0,7.15-13.59A55,55,0,0,1,97.33,101.52Z"/><path class="cls-1" d="M30.82,84.26a6.4,6.4,0,0,1,3.57-.07c.53-1.68,1.44-4.31,3-8.62,0-.06.09-.13.16-.27s.07-.2.14-.26a.1.1,0,0,1,.09-.07,1.06,1.06,0,0,1,.34-.33.87.87,0,0,1,.33-.28c.13-.06.27-.06.44-.13s.24-.07.37-.14a.87.87,0,0,1,.43.07.93.93,0,0,1,.43.07h.14l.27.2a.49.49,0,0,1,.3.07c5.48,4,14.4,4,19.88,0,5.65-4.1,13.86-4.9,20.53-2.44a20.34,20.34,0,0,1,2-10c-.41-1.93-.74-4-1-6C77,53,69.83,51,62.1,51,42.27,51,30,62,30,79.68a31.94,31.94,0,0,0,.37,4.78C30.52,84.4,30.65,84.33,30.82,84.26Z"/><path class="cls-1" d="M48.89,123.24a21.78,21.78,0,0,0,26.24,0c6.05-4.44,10.6-11.64,12.8-20.33a2.07,2.07,0,0,1,1.21-1.48,2.4,2.4,0,0,1,1.93,0,1.17,1.17,0,0,0,1-.27c.9-.8,2-2.74,2.3-5.75q-1.35-3.27-2.4-6.77h0a3.29,3.29,0,0,0-2.47.4,4.52,4.52,0,0,1-.74.34,2.24,2.24,0,0,1-2.87-1.89c-.11-.46-.59-1.92-1.23-3.83A20.11,20.11,0,0,1,82,77.46c-5.52-3.2-13.57-2.95-18.67.74A21.64,21.64,0,0,1,50.74,82a23.05,23.05,0,0,1-10-2.29c-1.28,3.57-2.45,7-2.61,7.74A2.46,2.46,0,0,1,37.2,89a2.39,2.39,0,0,1-2,.34,4.55,4.55,0,0,1-.7-.34,3.38,3.38,0,0,0-2.48-.4c-1.43.4-2.73,3.09-2.43,6.73a8.93,8.93,0,0,0,2.34,5.79,1,1,0,0,0,.8.34,2.67,2.67,0,0,1,2-.07,2.31,2.31,0,0,1,1.33,1.48C38.26,111.6,42.81,118.8,48.89,123.24Z"/><path class="cls-2" d="M259.83,146.69a92.67,92.67,0,0,0-14.27-5.86c-2.4-.81-4.44-1.42-6.35-1.89a64.89,64.89,0,0,0-7.79-1.88,18.62,18.62,0,0,1-4.54-8.82c6-4.72,10.56-11.78,13.07-20.2a5.53,5.53,0,0,0,3.21-1.35c2.13-1.82,3.6-5.11,3.94-8.88a14.09,14.09,0,0,0-1.17-7.41,40.78,40.78,0,0,0,1-8.68c0-20.2-14.37-33.26-36.6-33.26a43.32,43.32,0,0,0-19.83,4.36c.07-1.13.11-2.28.11-3.44,0-30-21.35-49.38-54.35-49.38S81.84,19.39,81.84,49.38c0,.46,0,.92,0,1.38A43.14,43.14,0,0,0,62.1,46.42c-22.26,0-36.64,13.06-36.64,33.26a41.42,41.42,0,0,0,.91,8.55,13.9,13.9,0,0,0-1.27,7.54c.33,3.77,1.8,7.07,3.94,8.89A5.62,5.62,0,0,0,32.28,106a39.78,39.78,0,0,0,13.08,20.2,18.79,18.79,0,0,1-4.82,9.16c-4.58.81-7.39,1.48-7.45,1.55-2,.47-4,1.08-6.42,1.88a95,95,0,0,0-14.27,5.86A22.86,22.86,0,0,0,0,165v6.2a15.54,15.54,0,0,0,8.08,13.67c7.72,4,20.13,8.76,38.29,10.56A22.91,22.91,0,0,0,56,205.53c14.49,7.6,40.11,16.8,80.1,16.8s65.61-9.2,80.1-16.8a22.86,22.86,0,0,0,8.47-8c18.82-1.71,31.59-6.55,39.48-10.68a15.52,15.52,0,0,0,8.09-13.67V167A22.83,22.83,0,0,0,259.83,146.69ZM228,140c-.83,2.63-5.31,6.92-10.76,11a34.85,34.85,0,0,0-7.45-5.2,131.79,131.79,0,0,0-16.27-7,22.76,22.76,0,0,0,4.07-7.9,25.64,25.64,0,0,0,12.63,3.37,25.9,25.9,0,0,0,12.67-3.37A22.6,22.6,0,0,0,228,140Zm-53.62-37.61a10.52,10.52,0,0,0,2.89,4.28,5.64,5.64,0,0,0,3.23,1.35,39.88,39.88,0,0,0,13.08,20.2,18.74,18.74,0,0,1-4.69,9l-.29-.1c-3.56-1.2-6.59-2.1-9.42-2.79a96.77,96.77,0,0,0-11.56-2.81,27.44,27.44,0,0,1-6.75-13.09A54.6,54.6,0,0,0,174.36,102.41Zm68.26-5a9.11,9.11,0,0,1-2.3,5.79,1.16,1.16,0,0,1-1,.27,2.42,2.42,0,0,0-1.94,0,2.11,2.11,0,0,0-1.21,1.48c-2.2,8.69-6.75,15.89-12.8,20.33a21.77,21.77,0,0,1-26.23,0c-6.09-4.44-10.63-11.64-12.8-20.33a2.37,2.37,0,0,0-1.34-1.48,2.67,2.67,0,0,0-2,.07c-.33.07-.63-.2-.8-.34a9,9,0,0,1-2.34-5.79,11.93,11.93,0,0,1,0-2c.58-1.38,1.11-2.79,1.6-4.23a2,2,0,0,1,.85-.52,3.37,3.37,0,0,1,2.47.4,4.08,4.08,0,0,0,.7.34,2.32,2.32,0,0,0,2-.34,2.46,2.46,0,0,0,.9-1.54c.17-.75,1.34-4.18,2.61-7.75a23,23,0,0,0,10,2.29,21.64,21.64,0,0,0,12.6-3.84c5.31-3.84,13.83-4,19.35-.33,1.5,4.24,3,8.75,3.24,9.63a2.33,2.33,0,0,0,.9,1.54,2.24,2.24,0,0,0,2,.34,3.54,3.54,0,0,0,.74-.34,3.29,3.29,0,0,1,2.47-.4C241.62,91.07,243,93.77,242.62,97.4ZM210.3,53c19.79,0,32.08,11,32.08,28.68a32.89,32.89,0,0,1-.36,4.84c-.2-.07-.4-.2-.64-.27a7.4,7.4,0,0,0-3.58-.07c-.53-1.68-1.43-4.3-3-8.61,0-.07-.07-.07-.1-.13a2.82,2.82,0,0,0-.23-.41,1.72,1.72,0,0,0-.3-.34.41.41,0,0,1-.13-.2c-7.06-5.11-18.12-5.11-25.17,0-5.11,3.76-13.19,4-18.71.77a24.56,24.56,0,0,0,.68-4,20.81,20.81,0,0,0-1.74-11c.13-.59.25-1.19.36-1.78C193.05,55.43,199.44,53,210.3,53ZM136.23,6.8c29.38,0,47.64,16.29,47.64,42.58a49.24,49.24,0,0,1-.54,7.2c-.31-.1-.6-.3-1-.4a10.67,10.67,0,0,0-5.31-.1c-.79-2.5-2.14-6.4-4.41-12.8,0-.09-.1-.09-.16-.19a3.73,3.73,0,0,0-.34-.61,2.5,2.5,0,0,0-.45-.5.7.7,0,0,1-.19-.3c-10.48-7.59-26.9-7.59-37.37,0-8.14,6-21.4,6-29.53,0a.74.74,0,0,0-.45-.1c-.15-.1-.25-.19-.39-.3h-.2a1.5,1.5,0,0,0-.65-.1,1.37,1.37,0,0,0-.65-.1c-.19.1-.39.1-.54.2s-.45.11-.64.2a1.15,1.15,0,0,0-.5.41,1.46,1.46,0,0,0-.5.49.16.16,0,0,0-.14.1c-.1.1-.1.3-.21.4s-.2.31-.24.4c-2.29,6.4-3.63,10.3-4.42,12.8a9.53,9.53,0,0,0-5.31.1c-.25.1-.44.2-.7.3a47.74,47.74,0,0,1-.55-7.1C88.53,23.09,106.8,6.8,136.23,6.8ZM91.56,62.68a5,5,0,0,1,3.68.59,5.27,5.27,0,0,0,1,.5,3.45,3.45,0,0,0,3-.5A3.69,3.69,0,0,0,100.6,61c.24-1.11,2-6.2,3.87-11.5a34.23,34.23,0,0,0,14.89,3.4,32.1,32.1,0,0,0,18.71-5.7c7.89-5.7,20.54-5.9,28.73-.5,2.23,6.3,4.52,13,4.81,14.3A3.44,3.44,0,0,0,173,63.27a3.34,3.34,0,0,0,2.93.5,5.35,5.35,0,0,0,1.1-.5,4.9,4.9,0,0,1,3.67-.59c2.08.59,4.06,4.6,3.57,10-.4,4.5-2.09,7.4-3.42,8.6a1.77,1.77,0,0,1-1.55.4,3.58,3.58,0,0,0-2.87,0,3.08,3.08,0,0,0-1.79,2.2c-3.27,12.9-10,23.59-19,30.19a32.33,32.33,0,0,1-39,0c-9-6.6-15.79-17.29-19-30.19a3.47,3.47,0,0,0-2-2.2,4,4,0,0,0-3,.1,1.54,1.54,0,0,1-1.19-.5c-1.34-1.2-3.08-4.1-3.48-8.6C87.5,67.28,89.43,63.27,91.56,62.68Zm1.6,71.68c-1.83.43-3.7.95-5.72,1.56-1.4-.34-2.81-.64-4.22-.9a18.49,18.49,0,0,1-4.54-8.82c6-4.71,10.56-11.78,13.06-20.2A5.46,5.46,0,0,0,95,104.66a9.87,9.87,0,0,0,2.38-3.14,55,55,0,0,0,14,16.94,27.81,27.81,0,0,1-7.15,13.59A112.13,112.13,0,0,0,93.16,134.36ZM62.1,51c7.73,0,14.93,2,20.11,5.06.23,2.06.56,4.08,1,6a20.34,20.34,0,0,0-2,10C74.55,69.6,66.34,70.4,60.69,74.5c-5.48,4-14.4,4-19.88,0a.49.49,0,0,0-.3-.07l-.27-.2H40.1a.93.93,0,0,0-.43-.07.87.87,0,0,0-.43-.07c-.13.07-.27.07-.37.14s-.31.07-.44.13a.87.87,0,0,0-.33.28,1.06,1.06,0,0,0-.34.33.1.1,0,0,0-.09.07c-.07.06-.07.2-.14.26s-.14.21-.16.27c-1.54,4.31-2.45,6.94-3,8.62a6.4,6.4,0,0,0-3.57.07c-.17.07-.3.14-.48.2A31.94,31.94,0,0,1,30,79.68C30,62,42.27,51,62.1,51Zm-26,51.91a2.31,2.31,0,0,0-1.33-1.48,2.67,2.67,0,0,0-2,.07,1,1,0,0,1-.8-.34,8.93,8.93,0,0,1-2.34-5.79c-.3-3.64,1-6.33,2.43-6.73a3.38,3.38,0,0,1,2.48.4,4.55,4.55,0,0,0,.7.34,2.39,2.39,0,0,0,2-.34,2.46,2.46,0,0,0,.9-1.55c.16-.74,1.33-4.17,2.61-7.74a23.05,23.05,0,0,0,10,2.29,21.64,21.64,0,0,0,12.6-3.84c5.1-3.69,13.15-3.94,18.67-.74a20.11,20.11,0,0,0,2.69,6.2c.64,1.91,1.12,3.37,1.23,3.83a2.24,2.24,0,0,0,2.87,1.89,4.52,4.52,0,0,0,.74-.34,3.29,3.29,0,0,1,2.47-.4h0q1,3.49,2.4,6.77c-.28,3-1.4,5-2.3,5.75a1.17,1.17,0,0,1-1,.27,2.4,2.4,0,0,0-1.93,0,2.07,2.07,0,0,0-1.21,1.48c-2.2,8.69-6.75,15.89-12.8,20.33a21.78,21.78,0,0,1-26.24,0C42.81,118.8,38.26,111.6,36.09,102.91Zm13.28,26A25.63,25.63,0,0,0,62,132.26a25.89,25.89,0,0,0,12.67-3.36A22.54,22.54,0,0,0,79.78,138c-.06.17-.13.35-.21.53a139.74,139.74,0,0,0-17.14,7.33,34.53,34.53,0,0,0-6.14,4.09c-6-4.37-11.14-9.13-12-11.95A22.74,22.74,0,0,0,49.37,128.9Zm60.4,7a33.65,33.65,0,0,0,7.56-13.49,37.77,37.77,0,0,0,37.56,0A33.71,33.71,0,0,0,162.48,136c-1.73,5.5-14.2,15.9-26.35,23.5C124,151.85,111.46,141.45,109.77,136Z"/></g></g></svg>