<svg xmlns="http://www.w3.org/2000/svg" viewBox="0 0 272.67 272.27"><defs><style>.cls-1{fill:#fff;}</style></defs><g id="Capa_2" data-name="Capa 2"><g id="Capa_1-2" data-name="Capa 1"><path class="cls-1" d="M262.8,112.35,160.15,9.85a33.72,33.72,0,0,0-47.63,0L9.87,112.35a33.59,33.59,0,0,0,0,47.57l102.65,102.5a33.72,33.72,0,0,0,47.63,0L262.8,159.92A33.59,33.59,0,0,0,262.8,112.35Zm-97,29.4L194,169.9a7.92,7.92,0,0,1,0,11.23l-12.58,12.56a7.92,7.92,0,0,1-11.21,0l-28.23-28.18a7.94,7.94,0,0,0-11.21,0L102.5,193.69a7.92,7.92,0,0,1-11.21,0L78.71,181.13a7.92,7.92,0,0,1,0-11.23l28.19-28.15a7.94,7.94,0,0,0,0-11.23L78.71,102.37a7.92,7.92,0,0,1,0-11.23L91.29,78.58a7.92,7.92,0,0,1,11.21,0l28.23,28.18a7.94,7.94,0,0,0,11.21,0l28.23-28.18a7.92,7.92,0,0,1,11.21,0L194,91.14a7.92,7.92,0,0,1,0,11.23l-28.19,28.15A7.94,7.94,0,0,0,165.77,141.75Z"/></g></g></svg>