<svg xmlns="http://www.w3.org/2000/svg" viewBox="0 0 651.84 549.09"><defs><style>.cls-1{fill:none;}.cls-2{fill:#fff;}.cls-3{fill:#33b298;}</style></defs><g id="Capa_2" data-name="Capa 2"><g id="Capa_1-2" data-name="Capa 1"><rect class="cls-1" width="651.84" height="549.09"/><path class="cls-2" d="M295.77,134.12l52.1,90.26q8.82-.16,17.74-.16,22.88,0,45.1,1L295.77,26.14,169.47,244.91c21.93-5,45.2-9.19,69.53-12.46Zm-93.53,87.23,93.53-162,85.65,148.37c-5.27-.09-10.55-.12-15.81-.12l-8.22,0-47.23-81.83L295.77,100.9l-14.4,24.91-52.71,91.3C219.75,218.4,210.92,219.81,202.24,221.35Z"/><path class="cls-3" d="M218.31,523c-65.15-28.63-105-66.94-105-109,0-14,4.41-27.6,12.7-40.56H496.24L428.8,256.56c25.66-2.14,52.23-3.26,79.44-3.26a943.65,943.65,0,0,1,105.81,5.84c-1.94-.63-3.94-1.22-5.91-1.83,2,.61,4,1.2,5.91,1.83,2.27.25,4.51.51,6.76.78q-8.91-2.25-18.13-4.31h0c-55-12.26-118.26-19.28-185.59-19.35h-1.21q-23,0-45.29,1.06c-4.95.23-9.88.51-14.77.81h0c-46.92,2.95-91,9.29-130.71,18.39q-5.13,1.17-10.18,2.42a546.48,546.48,0,0,0-65.21,20.17C76.57,307.18,31,346.73,31,390.53,31,446.78,106.11,496,218.31,523ZM370.39,263.37l32.33,56H189C234.25,294.13,297.18,274.45,370.39,263.37Z"/></g></g></svg>