<svg xmlns="http://www.w3.org/2000/svg" viewBox="0 0 258.49 272.27"><defs><style>.cls-1{fill:#fff;}</style></defs><g id="Capa_2" data-name="Capa 2"><g id="Capa_1-2" data-name="Capa 1"><path class="cls-1" d="M91.47,193.36a5.12,5.12,0,0,1-2.77-.81A76.36,76.36,0,0,1,134,52c40.32,2.11,72.74,36.73,72.26,77.17a76.16,76.16,0,0,1-35.15,63.36,5.13,5.13,0,1,1-5.55-8.64A65.93,65.93,0,0,0,196,129.05c.41-35-27.64-65-62.53-66.79a66.09,66.09,0,0,0-39.2,121.65,5.13,5.13,0,0,1-2.78,9.45Z"/><path class="cls-1" d="M90.3,164.31a5.13,5.13,0,0,1-4-2,55.53,55.53,0,0,1-11.72-34.09A55.4,55.4,0,0,1,132.89,73a54.09,54.09,0,0,1,23.89,7,5.14,5.14,0,0,1-5.06,9,43.68,43.68,0,0,0-19.37-5.68,45.11,45.11,0,0,0-47.54,45A44.6,44.6,0,0,0,94.34,156a5.13,5.13,0,0,1-4,8.3Z"/><path class="cls-1" d="M129.79,27.74a5.14,5.14,0,0,1-5.14-5.14V5.14a5.14,5.14,0,0,1,10.28,0V22.6A5.14,5.14,0,0,1,129.79,27.74Z"/><path class="cls-1" d="M54.22,58.59a5.09,5.09,0,0,1-3.63-1.51L38.24,44.74a5.14,5.14,0,0,1,7.26-7.27L57.85,49.82a5.14,5.14,0,0,1-3.63,8.77Z"/><path class="cls-1" d="M22.6,133.84H5.14a5.14,5.14,0,1,1,0-10.28H22.6a5.14,5.14,0,0,1,0,10.28Z"/><path class="cls-1" d="M41.1,221.76A5.14,5.14,0,0,1,37.47,213l12.35-12.35a5.13,5.13,0,1,1,7.26,7.26L44.73,220.25A5.12,5.12,0,0,1,41.1,221.76Z"/><path class="cls-1" d="M216.62,222.52A5.11,5.11,0,0,1,213,221l-12.36-12.35a5.14,5.14,0,1,1,7.27-7.26l12.35,12.35a5.13,5.13,0,0,1-3.63,8.76Z"/><path class="cls-1" d="M253.35,134.93H235.89a5.14,5.14,0,1,1,0-10.28h17.46a5.14,5.14,0,1,1,0,10.28Z"/><path class="cls-1" d="M205,59.36a5.14,5.14,0,0,1-3.64-8.77l12.35-12.35A5.14,5.14,0,0,1,221,45.5L208.67,57.85A5.11,5.11,0,0,1,205,59.36Z"/><path class="cls-1" d="M154.17,223.59H105a16.71,16.71,0,0,1-16.69-16.7V189.28a5.14,5.14,0,0,1,5.13-5.14h72.27a5.14,5.14,0,0,1,5.13,5.14v17.61A16.72,16.72,0,0,1,154.17,223.59ZM98.61,194.41v12.48a6.44,6.44,0,0,0,6.42,6.43h49.14a6.44,6.44,0,0,0,6.43-6.43V194.41Z"/><path class="cls-1" d="M150.82,249.53H108.39a16.06,16.06,0,0,1-16-16v-4.14a16.06,16.06,0,0,1,16-16h42.43a16.06,16.06,0,0,1,16,16v4.14A16.06,16.06,0,0,1,150.82,249.53Zm-42.43-25.94a5.77,5.77,0,0,0-5.76,5.76v4.14a5.76,5.76,0,0,0,5.76,5.76h42.43a5.76,5.76,0,0,0,5.76-5.76v-4.14a5.77,5.77,0,0,0-5.76-5.76Z"/><path class="cls-1" d="M129.6,272.27a25.46,25.46,0,0,1-25.46-25.45v-1.5a5.14,5.14,0,0,1,10.28,0v1.5a15.19,15.19,0,1,0,30.37,0v-1.28a5.14,5.14,0,1,1,10.28,0v1.28a25.45,25.45,0,0,1-25.47,25.45Z"/></g></g></svg>