<svg xmlns="http://www.w3.org/2000/svg" viewBox="0 0 619.31 175.74"><defs><style>.cls-1{fill:none;}.cls-2{fill:#2c3e50;}.cls-3{fill:#33b298;}</style></defs><g id="Capa_2" data-name="Capa 2"><g id="Capa_1-2" data-name="Capa 1"><rect class="cls-1" width="619.31" height="175.74"/><path class="cls-2" d="M19.36,11.15H66.21q17.15,0,30.47,6.66a49.35,49.35,0,0,1,20.67,18.84q7.35,12.17,7.35,28.1t-7.35,28.09a49.28,49.28,0,0,1-20.67,18.84q-13.32,6.66-30.47,6.66H19.36Zm45.93,90.34A45.51,45.51,0,0,0,86,97,32.3,32.3,0,0,0,99.82,84.12a38,38,0,0,0,4.83-19.37,38,38,0,0,0-4.83-19.37A32.32,32.32,0,0,0,86,32.51,45.64,45.64,0,0,0,65.29,28h-26v73.49Z"/><path class="cls-2" d="M145.83,11.15h19.91V118.34H145.83Z"/><path class="cls-2" d="M267.38,63.56h18.31v41.53a58.09,58.09,0,0,1-18.76,9.82,71.72,71.72,0,0,1-22,3.43,59.48,59.48,0,0,1-28.73-6.92,51.45,51.45,0,0,1-20.09-19.13,52.6,52.6,0,0,1-7.3-27.54,52.57,52.57,0,0,1,7.3-27.54,51.19,51.19,0,0,1,20.17-19.13,60.08,60.08,0,0,1,28.95-6.93A63.22,63.22,0,0,1,269,15.47a46.76,46.76,0,0,1,18,12.66L274.82,40a39.17,39.17,0,0,0-28.73-11.9,40.64,40.64,0,0,0-19.57,4.61,33.6,33.6,0,0,0-13.4,12.95,37.23,37.23,0,0,0-4.84,19.06,36.61,36.61,0,0,0,4.84,18.75,34.58,34.58,0,0,0,13.4,13.1,39.19,39.19,0,0,0,19.42,4.77A41.94,41.94,0,0,0,267.38,96Z"/><path class="cls-2" d="M312.88,11.15h19.91V118.34H312.88Z"/><path class="cls-2" d="M383.47,28H347.94V11.15h90.95V28H403.37v90.34h-19.9Z"/><path class="cls-2" d="M499.57,44.5l16.09,27.87c1.81,0,3.64,0,5.48,0q7.07,0,13.93.31l-35.5-61.49-39,67.57c6.78-1.55,14-2.84,21.48-3.85ZM470.69,71.44l28.88-50L526,67.24c-1.63,0-3.26,0-4.88,0H518.6L504,41.94l-4.44-7.7-4.45,7.7L478.85,70.13Q474.71,70.73,470.69,71.44Z"/><path class="cls-3" d="M475.65,164.58c-20.12-8.84-32.42-20.67-32.42-33.67a23,23,0,0,1,3.92-12.52H561.48L540.65,82.31c7.92-.66,16.13-1,24.53-1a293.08,293.08,0,0,1,32.68,1.8L596,82.54l1.82.57,2.09.24c-1.84-.46-3.7-.9-5.6-1.33h0A267.92,267.92,0,0,0,537,76h-.37q-7.1,0-14,.33c-1.53.07-3,.16-4.56.25h0a252.51,252.51,0,0,0-40.36,5.68L474.6,83a168,168,0,0,0-20.14,6.24c-22.58,8.67-36.65,20.88-36.65,34.41C417.81,141.06,441,156.26,475.65,164.58Zm47-80.16,10,17.29h-66C480.57,93.92,500,87.84,522.61,84.42Z"/></g></g></svg>