<svg xmlns="http://www.w3.org/2000/svg" viewBox="0 0 272.27 146.7"><defs><style>.cls-1{fill:#2c3e50;}.cls-2{fill:#fff;}</style></defs><g id="Capa_2" data-name="Capa 2"><g id="Capa_1-2" data-name="Capa 1"><path class="cls-1" d="M189,83.83a7.31,7.31,0,0,1-4.87-2.13,72.34,72.34,0,0,0-38.42-17.63,7.43,7.43,0,0,1-6.35-7.43l.13-49.2a7.28,7.28,0,0,1,7.3-7.38l.57,0a136.28,136.28,0,0,1,83.77,38.17,7.4,7.4,0,0,1-.3,10.85l-37,32.62A8,8,0,0,1,189,83.83Z"/><path class="cls-2" d="M231,43.67A5,5,0,0,0,229.44,40a133.25,133.25,0,0,0-82.3-37.49,5,5,0,0,0-5.39,5l-.14,49.17A5,5,0,0,0,146,61.55a75.14,75.14,0,0,1,39.76,18.06,5,5,0,0,0,6.57,0l37-32.33A4.94,4.94,0,0,0,231,43.67Z"/><path class="cls-1" d="M83.57,83c-1.81-1-3.52-.65-4.86-1.84L41.93,48.59a7.39,7.39,0,0,1-.23-10.85A136.3,136.3,0,0,1,125.7,0l.58,0a8.27,8.27,0,0,1,5.37,2,7.7,7.7,0,0,1,2.72,5.44l-.13,49.16c0,3.71-3.21,6.85-6.84,7.3A72.22,72.22,0,0,0,88.68,81.13,8.41,8.41,0,0,1,83.59,83Z"/><path class="cls-2" d="M125.88,2.41A133.31,133.31,0,0,0,43.36,39.47a5,5,0,0,0,.16,7.33L80.29,79.32a5,5,0,0,0,6.59,0,74,74,0,0,1,39.89-17.84,5,5,0,0,0,4.4-4.93L131.3,7.4a5,5,0,0,0-5.42-5Z"/><path class="cls-1" d="M215.88,137.36c-3.88,0-7.11-2.6-7.34-6.49a71.74,71.74,0,0,0-12.09-35.72,7.25,7.25,0,0,1,1.27-9.55l37-32.3a7.4,7.4,0,0,1,4.88-1.8,6.48,6.48,0,0,1,.77.06,7.44,7.44,0,0,1,5.14,2.94,135.22,135.22,0,0,1,26.78,76.25,6.4,6.4,0,0,1-2.07,4.94,7,7,0,0,1-5.32,1.8Z"/><path class="cls-2" d="M243.56,55.94a5,5,0,0,0-7.29-.78l-37,32.36a5,5,0,0,0-.85,6.52,75,75,0,0,1,12.49,37.15,5,5,0,0,0,5,4.69l49,.13a5,5,0,0,0,5-5.17A133.12,133.12,0,0,0,243.56,55.94Z"/><path class="cls-1" d="M7.37,136.8A7.07,7.07,0,0,1,2.05,135a6.89,6.89,0,0,1-2-5.18,134.78,134.78,0,0,1,27.19-76A7.3,7.3,0,0,1,32.35,51a6.62,6.62,0,0,1,.77,0A7.36,7.36,0,0,1,38,52.85L74.78,85.33A7.41,7.41,0,0,1,76,95a71.15,71.15,0,0,0-12.28,35.48c-.25,3.88-3.49,6.46-7.38,6.45Z"/><path class="cls-2" d="M73.19,87.14,36.4,54.66a5,5,0,0,0-7.29.74A132.9,132.9,0,0,0,2.4,130.13a5,5,0,0,0,5,5.19l49,.13a5,5,0,0,0,5-4.66A75.14,75.14,0,0,1,74,93.66,5,5,0,0,0,73.19,87.14Z"/><path class="cls-1" d="M134,146.7a18.15,18.15,0,0,1-16.13-9.85c-2.46-4.77-4-12.2,2.66-20.58,9.38-11.81,30.26-44.61,38.79-58.16a4,4,0,0,1,3.39-1.86,3.94,3.94,0,0,1,1.48.29,4,4,0,0,1,2.42,4.5l-13.58,66a33.66,33.66,0,0,1-2,8,18.24,18.24,0,0,1-16,11.67C134.74,146.7,134.38,146.7,134,146.7Zm.88-23.48a3.39,3.39,0,1,0,3.1,2.08,3.3,3.3,0,0,0-1.83-1.82A3.47,3.47,0,0,0,134.91,123.22Z"/><path class="cls-2" d="M150.69,126.65l13.6-66.09a1.59,1.59,0,0,0-2.91-1.17C152.17,74,131.79,106,122.43,117.76c-5.56,7-4.85,13.25-2.4,18a15.82,15.82,0,0,0,28.82-1.6A30.53,30.53,0,0,0,150.69,126.65Zm-18,5.29a5.78,5.78,0,1,1,7.54-3.14A5.77,5.77,0,0,1,132.7,131.94Z"/></g></g></svg>