<svg xmlns="http://www.w3.org/2000/svg" viewBox="0 0 220.03 272.27"><defs><style>.cls-1{fill:#fff;}</style></defs><g id="Capa_2" data-name="Capa 2"><g id="Capa_1-2" data-name="Capa 1"><path class="cls-1" d="M200,0H20A20,20,0,0,0,0,20V252.27a20,20,0,0,0,20,20H200a20,20,0,0,0,20-20V20A20,20,0,0,0,200,0ZM87.61,47.62c1-9.31,9-17.68,18.19-18.51,12-1.08,20.37,7.13,22.41,16.47a14.79,14.79,0,0,1,.4,2.38c.06,1,0,2.1,0,3.15-.2,8-1.89,15.55-6.84,22.06-2.67,3.51-6,6.25-10.4,7.21C105.78,81.59,101,79.83,97,76c-5-4.77-7.48-10.81-8.67-17.46A38.44,38.44,0,0,1,87.61,47.62Zm-2,31.47c1.82-.58,3.72-.92,5.56-1.37,3.42,8,8.48,14.94,13,22.14l.26-.06c.13-1.69.28-3.37.4-5,.11-1.43.14-2.87.31-4.3a2.07,2.07,0,0,0-1-2.2,5.06,5.06,0,0,1-2.27-4.14,43.39,43.39,0,0,0,6.29.87,40.75,40.75,0,0,0,6.19-.91,4.94,4.94,0,0,1-2,3.92,2.77,2.77,0,0,0-1.23,2.92c.32,2.92.44,5.86.88,8.88.68-1,1.4-2,2-3,2.41-3.83,4.86-7.63,7.17-11.51a66,66,0,0,0,3.26-6.45c.38-.83.78-1.07,1.65-.9,11.6,2.31,19.33,8.86,22.52,20.43a24.7,24.7,0,0,1,.7,9.68c-.72,5.85-4.06,9.35-9.66,10.81a37.58,37.58,0,0,1-12.62.9c.66-.58,1.35-1.13,2-1.76a7.19,7.19,0,0,0,1.17-8.88,9.87,9.87,0,0,0-1.36-1.73c-1.32-1.36-2.66-2.69-4-4-3.37-3.33-7.64-3.34-11,0-2.73,2.72-5.45,5.46-8.18,8.18-.32.32-.66.61-1,1-.85-.9-1.62-1.76-2.44-2.56a7.2,7.2,0,0,0-10.3-.29c-1.67,1.5-3.21,3.13-4.8,4.72A8.11,8.11,0,0,0,84.92,120c-5.2-.39-10.34-.67-14.47-4.29-2.43-2.14-3.32-5-3.63-8.16A27.19,27.19,0,0,1,85.57,79.09Zm39.5,36q-6.21,6.23-12.43,12.43l-5.89,5.85c-1.4,1.39-2.6,1.39-4,0L90.92,121.49c-1.31-1.32-1.33-2.54,0-3.84s2.71-2.74,4.09-4.09a2.4,2.4,0,0,1,3.85,0c2,2,3.85,4,5.76,6,2.25-2.22,4.3-4.23,6.33-6.25s4.29-4.35,6.47-6.48c1.36-1.33,2.6-1.29,3.95,0s2.48,2.48,3.72,3.72C126.69,112.24,126.71,113.41,125.07,115.05Zm55.38,122.28a5.92,5.92,0,0,1-5.93,5.92H41.72a5.92,5.92,0,0,1-5.92-5.92v-4.67a5.92,5.92,0,0,1,5.92-5.92h132.8a5.92,5.92,0,0,1,5.93,5.92Zm0-32a5.93,5.93,0,0,1-5.93,5.93H41.72a5.93,5.93,0,0,1-5.92-5.93v-4.66a5.93,5.93,0,0,1,5.92-5.93h132.8a5.93,5.93,0,0,1,5.93,5.93Zm0-32a5.92,5.92,0,0,1-5.93,5.92H41.72a5.92,5.92,0,0,1-5.92-5.92v-4.67a5.92,5.92,0,0,1,5.92-5.92h132.8a5.92,5.92,0,0,1,5.93,5.92Z"/></g></g></svg>