<svg xmlns="http://www.w3.org/2000/svg" viewBox="0 0 214.13 272.27"><defs><style>.cls-1{fill:#fff;}</style></defs><g id="Capa_2" data-name="Capa 2"><g id="Capa_1-2" data-name="Capa 1"><path class="cls-1" d="M98.06,215.77c-2.2-2.31-4.17-4.54-6.3-6.6-7.9-7.69-18.47-8.06-26.61-.75-4.31,3.87-8.31,8.09-12.4,12.19-3.91,3.93-5.39,8.89-5.64,14.6-13.45-1-26.72-1.72-37.4-11.1-6.3-5.53-8.59-13-9.38-21.06A70.26,70.26,0,0,1,48.77,129.4c4.71-1.5,9.62-2.37,14.39-3.53,8.82,20.8,21.91,38.61,33.66,57.22l.66-.17c.36-4.35.74-8.69,1.06-13,.28-3.7.35-7.43.79-11.11a5.38,5.38,0,0,0-2.51-5.69A13.08,13.08,0,0,1,91,142.37c5.51.83,10.88,2.27,16.26,2.26s10.59-1.5,16-2.36A12.77,12.77,0,0,1,118,152.4c-2.81,2-3.53,4.19-3.17,7.56.8,7.54,1.12,15.13,2.25,22.94,1.77-2.56,3.64-5.06,5.3-7.68,6.24-9.88,12.56-19.7,18.53-29.73a171.14,171.14,0,0,0,8.42-16.67c1-2.14,2-2.77,4.27-2.32,30,5.95,50,22.88,58.2,52.78a63.59,63.59,0,0,1,1.81,25c-1.86,15.12-10.48,24.17-25,28-10.51,2.74-21.25,3.22-32.6,2.34,1.69-1.51,3.47-2.93,5.05-4.55,6.28-6.44,7.48-15.43,3-23a24.79,24.79,0,0,0-3.51-4.47c-3.4-3.52-6.88-7-10.36-10.4-8.71-8.6-19.74-8.62-28.4,0-7.06,7-14.09,14.09-21.15,21.13C99.9,214.14,99,214.89,98.06,215.77Z"/><path class="cls-1" d="M160.05,57.09c-.53,20.65-4.9,40.19-17.7,57-6.9,9.09-15.43,16.16-26.87,18.63C101,135.86,88.69,131.32,78.2,121.3,65.3,109,58.86,93.35,55.77,76.16,54.11,66.89,53.06,57.59,54,48.08,56.53,24,77.36,2.38,101.05.25c31-2.8,52.64,18.43,57.94,42.55A40.44,40.44,0,0,1,160,49C160.18,51.65,160.05,54.38,160.05,57.09Z"/><path class="cls-1" d="M97.9,234c5.8-5.73,11.1-10.92,16.35-16.16,5.59-5.56,11.07-11.23,16.71-16.74,3.52-3.43,6.73-3.32,10.2.09,3.23,3.18,6.41,6.41,9.62,9.61,4.28,4.29,4.32,7.3.07,11.56q-16,16.07-32.1,32.11-7.6,7.57-15.24,15.13c-3.62,3.58-6.72,3.58-10.35,0Q77.86,254.27,62.6,239c-3.39-3.4-3.43-6.55-.12-9.93q5.24-5.33,10.57-10.57c3.35-3.28,6.65-3.31,10,.05C88,223.62,92.94,228.83,97.9,234Z"/></g></g></svg>